<svg xmlns="http://www.w3.org/2000/svg" viewBox="0 0 900 680"><defs><linearGradient id="bg" x1="0" y1="0" x2="1" y2="1"><stop stop-color="#fdf1ec"/><stop offset="1" stop-color="#ecf1e8"/></linearGradient><filter id="s" x="-20%" y="-20%" width="140%" height="140%"><feDropShadow dx="0" dy="14" stdDeviation="16" flood-color="#7a6151" flood-opacity=".14"/></filter></defs><rect width="900" height="680" rx="42" fill="url(#bg)"/><g filter="url(#s)"><path d="M160 290c0-35 28-63 63-63h454c35 0 63 28 63 63v174c0 55-45 100-100 100H260c-55 0-100-45-100-100V290z" fill="#fffaf5" stroke="#e7ddd0" stroke-width="7"/><path d="M203 332h494v128c0 37-30 67-67 67H270c-37 0-67-30-67-67V332z" fill="#e8a99f" opacity=".55"/><path d="M234 263h432c24 0 43 19 43 43v30H191v-30c0-24 19-43 43-43z" fill="#f7dfd6" stroke="#e7c6bd" stroke-width="6"/></g><g><circle cx="255" cy="388" r="34" fill="#f1cfc2"/><circle cx="318" cy="408" r="31" fill="#d8e4d2"/><circle cx="382" cy="382" r="35" fill="#f8e6b2"/><circle cx="451" cy="410" r="32" fill="#cfe3ec"/><circle cx="517" cy="383" r="34" fill="#f1cfc2"/><circle cx="584" cy="409" r="31" fill="#d8e4d2"/><circle cx="650" cy="386" r="35" fill="#fff2c2"/><circle cx="285" cy="463" r="38" fill="#cfe3ec"/><circle cx="360" cy="473" r="34" fill="#fff2c2"/><circle cx="435" cy="458" r="39" fill="#d8e4d2"/><circle cx="513" cy="471" r="35" fill="#f1cfc2"/><circle cx="590" cy="459" r="39" fill="#cfe3ec"/><circle cx="668" cy="471" r="34" fill="#d8e4d2"/></g><g fill="#a85f59" opacity=".9"><circle cx="236" cy="195" r="10"/><circle cx="687" cy="172" r="8"/><circle cx="730" cy="221" r="6"/><circle cx="178" cy="231" r="7"/></g><text x="450" y="146" text-anchor="middle" font-family="Cormorant Garamond, Georgia, serif" font-size="62" fill="#a85f59">Ball Pit Fun</text><text x="450" y="188" text-anchor="middle" font-family="Nunito, Arial, sans-serif" font-size="24" fill="#5c6470" font-weight="700">soft pastel play for littles</text></svg>